<?xml version="1.0" encoding="UTF-8"?>
<svg width="513px" height="395px" viewBox="0 0 513 395" version="1.1" xmlns="http://www.w3.org/2000/svg" xmlns:xlink="http://www.w3.org/1999/xlink">
    <title>左侧</title>
    <defs>
        <linearGradient x1="22.0916652%" y1="-3.97532612%" x2="27.2605514%" y2="96.4646%" id="linearGradient-1">
            <stop stop-color="#3249FE" stop-opacity="0.15" offset="0%"></stop>
            <stop stop-color="#296CEB" stop-opacity="0.4" offset="80.7292%"></stop>
            <stop stop-color="#262CE6" stop-opacity="0.51" offset="100%"></stop>
        </linearGradient>
        <linearGradient x1="50%" y1="0%" x2="50%" y2="100%" id="linearGradient-2">
            <stop stop-color="#235CFC" offset="0%"></stop>
            <stop stop-color="#C4DCFF" offset="100%"></stop>
        </linearGradient>
        <linearGradient x1="5.8737898%" y1="15.8630482%" x2="14.0463792%" y2="79.3867573%" id="linearGradient-3">
            <stop stop-color="#3249FE" stop-opacity="0.15" offset="0%"></stop>
            <stop stop-color="#296CEB" stop-opacity="0.4" offset="80.7292%"></stop>
            <stop stop-color="#262CE6" stop-opacity="0.51" offset="100%"></stop>
        </linearGradient>
        <linearGradient x1="24.5357699%" y1="-3.97532612%" x2="29.2519849%" y2="96.4646%" id="linearGradient-4">
            <stop stop-color="#3249FE" stop-opacity="0.15" offset="0%"></stop>
            <stop stop-color="#296CEB" stop-opacity="0.4" offset="80.7292%"></stop>
            <stop stop-color="#262CE6" stop-opacity="0.51" offset="100%"></stop>
        </linearGradient>
        <linearGradient x1="50%" y1="0%" x2="50%" y2="100%" id="linearGradient-5">
            <stop stop-color="#235CFC" offset="0%"></stop>
            <stop stop-color="#C4DCFF" offset="100%"></stop>
        </linearGradient>
        <linearGradient x1="40.9530696%" y1="-3.97532612%" x2="42.6286462%" y2="96.4646%" id="linearGradient-6">
            <stop stop-color="#3249FE" stop-opacity="0.15" offset="0%"></stop>
            <stop stop-color="#296CEB" stop-opacity="0.4" offset="80.7292%"></stop>
            <stop stop-color="#262CE6" stop-opacity="0.51" offset="100%"></stop>
        </linearGradient>
        <linearGradient x1="50%" y1="24.9854329%" x2="50%" y2="76.2789444%" id="linearGradient-7">
            <stop stop-color="#FFFFFF" stop-opacity="0.436762456" offset="0%"></stop>
            <stop stop-color="#FFFFFF" stop-opacity="0.0644394668" offset="100%"></stop>
        </linearGradient>
        <linearGradient x1="50%" y1="15.2925567%" x2="50%" y2="82.1283191%" id="linearGradient-8">
            <stop stop-color="#FFFFFF" stop-opacity="0.309030813" offset="0%"></stop>
            <stop stop-color="#FFFFFF" stop-opacity="0.0401278409" offset="100%"></stop>
        </linearGradient>
        <path d="M1.42108547e-14,41.610356 L1.42108547e-14,161.008472 C2.94451586e-14,162.113041 0.8954305,163.008472 2,163.008472 C2.25437848,163.008472 2.50642172,162.959944 2.74261469,162.865492 L107.350806,121.033105 C108.483131,120.580293 109.228671,119.487096 109.236817,118.267616 L110.007089,2.96513614 C110.014468,1.86059129 109.125039,0.959199025 108.020495,0.951820172 C107.786235,0.950255216 107.553523,0.989858971 107.332969,1.06882547 L1.98875189,38.7859308 C0.795932461,39.2130041 1.53879634e-14,40.3433872 1.42108547e-14,41.610356 Z" id="path-9"></path>
        <filter x="-1.9%" y="-1.2%" width="103.9%" height="102.4%" filterUnits="objectBoundingBox" id="filter-11">
            <feGaussianBlur stdDeviation="1" in="SourceGraphic"></feGaussianBlur>
        </filter>
        <path d="M34.2955643,28.0221856 L34.2955643,147.390546 C34.2955643,148.495116 35.1909948,149.390546 36.2955643,149.390546 C36.544781,149.390546 36.7918024,149.343968 37.0239059,149.253211 L108.625073,121.255626 C109.768655,120.808461 110.524291,119.709543 110.532494,118.48167 L111.303131,3.12443823 C111.31051,2.01989338 110.421082,1.11850112 109.316537,1.11112226 C109.09831,1.10966441 108.881317,1.14393265 108.67416,1.21256815 L36.3520396,25.1744214 C35.1243757,25.5811725 34.2955643,26.7288933 34.2955643,28.0221856 Z" id="path-12"></path>
        <filter x="-194.9%" y="-68.9%" width="489.8%" height="237.7%" filterUnits="objectBoundingBox" id="filter-14">
            <feGaussianBlur stdDeviation="19" in="SourceGraphic"></feGaussianBlur>
        </filter>
        <linearGradient x1="50%" y1="44.1078191%" x2="65.557102%" y2="55.8921809%" id="linearGradient-15">
            <stop stop-color="#182D77" offset="0%"></stop>
            <stop stop-color="#4A92FF" offset="100%"></stop>
        </linearGradient>
        <polygon id="path-16" points="304.613857 26.2162653 378 63.9189501 353.723793 108.218773 245.92777 133 115.816138 125.257566 43 88.5573468 67.3635796 44.8242706 178.273359 18"></polygon>
        <filter x="-3.2%" y="-7.4%" width="106.4%" height="118.3%" filterUnits="objectBoundingBox" id="filter-17">
            <feMorphology radius="0.5" operator="dilate" in="SourceAlpha" result="shadowSpreadOuter1"></feMorphology>
            <feOffset dx="0" dy="2" in="shadowSpreadOuter1" result="shadowOffsetOuter1"></feOffset>
            <feMorphology radius="1" operator="erode" in="SourceAlpha" result="shadowInner"></feMorphology>
            <feOffset dx="0" dy="2" in="shadowInner" result="shadowInner"></feOffset>
            <feComposite in="shadowOffsetOuter1" in2="shadowInner" operator="out" result="shadowOffsetOuter1"></feComposite>
            <feGaussianBlur stdDeviation="3" in="shadowOffsetOuter1" result="shadowBlurOuter1"></feGaussianBlur>
            <feColorMatrix values="0 0 0 0 0.797465701   0 0 0 0 0.878833778   0 0 0 0 1  0 0 0 0.5 0" type="matrix" in="shadowBlurOuter1"></feColorMatrix>
        </filter>
        <linearGradient x1="50%" y1="44.122449%" x2="65.557102%" y2="55.877551%" id="linearGradient-18">
            <stop stop-color="#183577" offset="0%"></stop>
            <stop stop-color="#4A6FFF" offset="99.7126653%"></stop>
        </linearGradient>
        <polygon id="path-19" points="328.493492 24.788193 420.5 71.9985114 390.064159 127.469594 254.916905 158.5 91.7918741 148.805126 0.5 102.850069 31.0453834 48.0886519 170.09645 14.5"></polygon>
        <filter x="-2.2%" y="-4.9%" width="104.4%" height="112.5%" filterUnits="objectBoundingBox" id="filter-20">
            <feMorphology radius="0.5" operator="dilate" in="SourceAlpha" result="shadowSpreadOuter1"></feMorphology>
            <feOffset dx="0" dy="2" in="shadowSpreadOuter1" result="shadowOffsetOuter1"></feOffset>
            <feMorphology radius="1" operator="erode" in="SourceAlpha" result="shadowInner"></feMorphology>
            <feOffset dx="0" dy="2" in="shadowInner" result="shadowInner"></feOffset>
            <feComposite in="shadowOffsetOuter1" in2="shadowInner" operator="out" result="shadowOffsetOuter1"></feComposite>
            <feGaussianBlur stdDeviation="2.5" in="shadowOffsetOuter1" result="shadowBlurOuter1"></feGaussianBlur>
            <feColorMatrix values="0 0 0 0 1   0 0 0 0 1   0 0 0 0 1  0 0 0 0.5 0" type="matrix" in="shadowBlurOuter1"></feColorMatrix>
        </filter>
        <filter x="-12.9%" y="-37.6%" width="125.9%" height="175.3%" filterUnits="objectBoundingBox" id="filter-21">
            <feGaussianBlur stdDeviation="13" in="SourceGraphic"></feGaussianBlur>
        </filter>
        <linearGradient x1="0%" y1="16.5302739%" x2="100%" y2="16.5302739%" id="linearGradient-22">
            <stop stop-color="#4675FF" offset="0%"></stop>
            <stop stop-color="#759EFF" offset="21.4798507%"></stop>
            <stop stop-color="#1068FF" offset="22.9429549%"></stop>
            <stop stop-color="#3E84FF" offset="59.2384834%"></stop>
            <stop stop-color="#0063F8" offset="61.3587274%"></stop>
            <stop stop-color="#005EF8" offset="91.265286%"></stop>
            <stop stop-color="#6577FF" offset="92.7527967%"></stop>
            <stop stop-color="#5546FF" offset="100%"></stop>
        </linearGradient>
        <linearGradient x1="25.9714099%" y1="45.8636853%" x2="85.581814%" y2="53.2632098%" id="linearGradient-23">
            <stop stop-color="#2255ED" offset="0%"></stop>
            <stop stop-color="#6962FF" offset="100%"></stop>
        </linearGradient>
        <polygon id="path-24" points="294.59472 7.40091557 360.682151 41.3621351 338.820366 81.2658186 241.745332 103.587855 124.574117 96.6137494 59 63.5555147 80.940469 24.1623361 180.819576 -2.25935759e-13"></polygon>
        <filter x="-4.1%" y="-12.1%" width="108.3%" height="124.1%" filterUnits="objectBoundingBox" id="filter-25">
            <feGaussianBlur stdDeviation="12" in="SourceAlpha" result="shadowBlurInner1"></feGaussianBlur>
            <feOffset dx="0" dy="1" in="shadowBlurInner1" result="shadowOffsetInner1"></feOffset>
            <feComposite in="shadowOffsetInner1" in2="SourceAlpha" operator="arithmetic" k2="-1" k3="1" result="shadowInnerInner1"></feComposite>
            <feColorMatrix values="0 0 0 0 0.820903201   0 0 0 0 0.875811771   0 0 0 0 1  0 0 0 0.342766608 0" type="matrix" in="shadowInnerInner1"></feColorMatrix>
        </filter>
        <linearGradient x1="25.9714099%" y1="45.8636853%" x2="85.581814%" y2="53.2632098%" id="linearGradient-26">
            <stop stop-color="#FFFFFF" offset="0%"></stop>
            <stop stop-color="#FFFFFF" stop-opacity="0.581457605" offset="100%"></stop>
        </linearGradient>
        <linearGradient x1="50%" y1="0%" x2="50%" y2="100%" id="linearGradient-27">
            <stop stop-color="#FFFFFF" stop-opacity="0" offset="0%"></stop>
            <stop stop-color="#FFDBDB" stop-opacity="0.468613418" offset="100%"></stop>
        </linearGradient>
        <polygon id="path-28" points="253.103547 18.8671451 287.635719 36.6126471 276.212443 57.4632205 225.488552 69.1269871 164.263953 65.4828601 130 48.2091879 141.464389 27.6253648 193.653472 15"></polygon>
        <filter x="-42.0%" y="-118.2%" width="184.0%" height="343.9%" filterUnits="objectBoundingBox" id="filter-29">
            <feMorphology radius="0.5" operator="dilate" in="SourceAlpha" result="shadowSpreadOuter1"></feMorphology>
            <feOffset dx="0" dy="2" in="shadowSpreadOuter1" result="shadowOffsetOuter1"></feOffset>
            <feGaussianBlur stdDeviation="21.5" in="shadowOffsetOuter1" result="shadowBlurOuter1"></feGaussianBlur>
            <feComposite in="shadowBlurOuter1" in2="SourceAlpha" operator="out" result="shadowBlurOuter1"></feComposite>
            <feColorMatrix values="0 0 0 0 0.34728827   0 0 0 0 0.0702716109   0 0 0 0 0.0702716109  0 0 0 0.206539554 0" type="matrix" in="shadowBlurOuter1"></feColorMatrix>
        </filter>
        <filter x="-31.2%" y="-86.8%" width="162.4%" height="281.1%" filterUnits="objectBoundingBox" id="filter-30">
            <feGaussianBlur stdDeviation="5" in="SourceAlpha" result="shadowBlurInner1"></feGaussianBlur>
            <feOffset dx="0" dy="1" in="shadowBlurInner1" result="shadowOffsetInner1"></feOffset>
            <feComposite in="shadowOffsetInner1" in2="SourceAlpha" operator="arithmetic" k2="-1" k3="1" result="shadowInnerInner1"></feComposite>
            <feColorMatrix values="0 0 0 0 1   0 0 0 0 1   0 0 0 0 1  0 0 0 0.228720498 0" type="matrix" in="shadowInnerInner1"></feColorMatrix>
        </filter>
        <linearGradient x1="50%" y1="24.9854329%" x2="50%" y2="76.2789444%" id="linearGradient-31">
            <stop stop-color="#FFFFFF" stop-opacity="0.436762456" offset="0%"></stop>
            <stop stop-color="#FFFFFF" stop-opacity="0.0644394668" offset="100%"></stop>
        </linearGradient>
        <linearGradient x1="50%" y1="15.2925567%" x2="50%" y2="82.1283191%" id="linearGradient-32">
            <stop stop-color="#FFFFFF" stop-opacity="0.309030813" offset="0%"></stop>
            <stop stop-color="#FFFFFF" stop-opacity="0.0401278409" offset="100%"></stop>
        </linearGradient>
        <path d="M0,23.801617 L0,105.100386 C-6.38089996e-15,106.204956 0.8954305,107.100386 2,107.100386 C2.29850207,107.100386 2.59321871,107.033569 2.86253451,106.904835 L53.5499465,82.676023 C54.5954597,82.176263 55.2596529,81.1190443 55.2561308,79.9602322 L55.0220123,2.93235439 C55.0186551,1.82778999 54.1205072,0.935085183 53.0159428,0.938442396 C52.7661154,0.939201722 52.5186418,0.986761272 52.2863296,1.07865967 L1.89646215,21.0119568 C0.75187509,21.4647342 -1.50740387e-16,22.5707283 0,23.801617 Z" id="path-33"></path>
        <filter x="-4.5%" y="-6.0%" width="109.0%" height="112.1%" filterUnits="objectBoundingBox" id="filter-35">
            <feGaussianBlur stdDeviation="1" in="SourceGraphic"></feGaussianBlur>
        </filter>
        <linearGradient x1="50%" y1="24.9854329%" x2="50%" y2="76.2789444%" id="linearGradient-36">
            <stop stop-color="#FFFFFF" stop-opacity="0.436762456" offset="0%"></stop>
            <stop stop-color="#FFFFFF" stop-opacity="0.0644394668" offset="100%"></stop>
        </linearGradient>
        <linearGradient x1="50%" y1="15.2925567%" x2="50%" y2="82.1283191%" id="linearGradient-37">
            <stop stop-color="#FFFFFF" stop-opacity="0.309030813" offset="0%"></stop>
            <stop stop-color="#FFFFFF" stop-opacity="0.0401278409" offset="100%"></stop>
        </linearGradient>
        <path d="M-1.70530257e-13,139.88456 L-1.70530257e-13,153.747055 C-1.77799335e-13,154.851625 0.8954305,155.747055 2,155.747055 C2.2583153,155.747055 2.51418459,155.697015 2.75346762,155.599698 L218.177833,67.9868818 C219.308328,67.5271108 220.047631,66.4283303 220.047631,65.2079171 L220.047631,52.9519845 C220.047631,51.847415 219.152201,50.9519845 218.047631,50.9519845 C217.793633,50.9519845 217.541959,51.0003671 217.306065,51.0945454 L1.8876513,137.098402 C0.747713157,137.553512 -1.59134254e-13,138.657131 -1.70530257e-13,139.88456 Z" id="path-38"></path>
        <filter x="-9.2%" y="-6.1%" width="118.4%" height="112.2%" filterUnits="objectBoundingBox" id="filter-40">
            <feGaussianBlur stdDeviation="1" in="SourceGraphic"></feGaussianBlur>
        </filter>
        <linearGradient x1="50%" y1="0%" x2="50%" y2="100%" id="linearGradient-41">
            <stop stop-color="#FFFFFF" stop-opacity="0" offset="0%"></stop>
            <stop stop-color="#FFFFFF" stop-opacity="0.451076267" offset="100%"></stop>
        </linearGradient>
        <linearGradient x1="34.2481446%" y1="37.5%" x2="100%" y2="55.0840551%" id="linearGradient-42">
            <stop stop-color="#FFFFFF" stop-opacity="0.399721372" offset="0%"></stop>
            <stop stop-color="#FFFFFF" stop-opacity="0.734784747" offset="100%"></stop>
        </linearGradient>
        <linearGradient x1="50%" y1="0%" x2="50%" y2="100%" id="linearGradient-43">
            <stop stop-color="#FFFFFF" stop-opacity="0.227955638" offset="0%"></stop>
            <stop stop-color="#FFFFFF" stop-opacity="0.799306163" offset="100%"></stop>
        </linearGradient>
        <linearGradient x1="50%" y1="0%" x2="50%" y2="100%" id="linearGradient-44">
            <stop stop-color="#FFFFFF" stop-opacity="0" offset="0%"></stop>
            <stop stop-color="#FFFFFF" stop-opacity="0.451076267" offset="100%"></stop>
        </linearGradient>
        <linearGradient x1="34.2481446%" y1="37.5%" x2="100%" y2="55.0840551%" id="linearGradient-45">
            <stop stop-color="#FFFFFF" stop-opacity="0.399721372" offset="0%"></stop>
            <stop stop-color="#FFFFFF" stop-opacity="0.734784747" offset="100%"></stop>
        </linearGradient>
        <linearGradient x1="50%" y1="0%" x2="50%" y2="100%" id="linearGradient-46">
            <stop stop-color="#FFFFFF" stop-opacity="0.227955638" offset="0%"></stop>
            <stop stop-color="#FFFFFF" stop-opacity="0.799306163" offset="100%"></stop>
        </linearGradient>
        <linearGradient x1="50%" y1="0%" x2="50%" y2="100%" id="linearGradient-47">
            <stop stop-color="#FFFFFF" stop-opacity="0" offset="0%"></stop>
            <stop stop-color="#FFFFFF" stop-opacity="0.451076267" offset="100%"></stop>
        </linearGradient>
        <linearGradient x1="34.2481446%" y1="37.5%" x2="100%" y2="55.0840551%" id="linearGradient-48">
            <stop stop-color="#FFFFFF" stop-opacity="0.399721372" offset="0%"></stop>
            <stop stop-color="#FFFFFF" stop-opacity="0.734784747" offset="100%"></stop>
        </linearGradient>
        <linearGradient x1="50%" y1="0%" x2="50%" y2="100%" id="linearGradient-49">
            <stop stop-color="#FFFFFF" stop-opacity="0.227955638" offset="0%"></stop>
            <stop stop-color="#FFFFFF" stop-opacity="0.799306163" offset="100%"></stop>
        </linearGradient>
        <linearGradient x1="50%" y1="0%" x2="50%" y2="100%" id="linearGradient-50">
            <stop stop-color="#FFFFFF" stop-opacity="0" offset="0%"></stop>
            <stop stop-color="#FFFFFF" stop-opacity="0.451076267" offset="100%"></stop>
        </linearGradient>
        <linearGradient x1="34.2481446%" y1="37.5%" x2="100%" y2="55.0840551%" id="linearGradient-51">
            <stop stop-color="#FFFFFF" stop-opacity="0.399721372" offset="0%"></stop>
            <stop stop-color="#FFFFFF" stop-opacity="0.734784747" offset="100%"></stop>
        </linearGradient>
        <linearGradient x1="50%" y1="0%" x2="50%" y2="100%" id="linearGradient-52">
            <stop stop-color="#FFFFFF" stop-opacity="0.227955638" offset="0%"></stop>
            <stop stop-color="#FFFFFF" stop-opacity="0.799306163" offset="100%"></stop>
        </linearGradient>
        <linearGradient x1="50%" y1="0%" x2="50%" y2="100%" id="linearGradient-53">
            <stop stop-color="#5976FF" offset="0.774250164%"></stop>
            <stop stop-color="#46549F" offset="100%"></stop>
        </linearGradient>
        <path d="M79.8142761,2.6690132 L85.1729868,7.57945249 C123.227697,42.5840141 148.95917,37.9760568 149.200692,37.920486 L156.751687,36.1996852 L156.590672,124.555387 C156.526885,159.650251 140.608053,181.453586 139.935505,182.378714 L79.6030985,248.669013 L75.1299716,246.244105 C73.4244487,245.324029 32.9415046,223.313566 19.0966721,209.665247 C3.87330152,194.655444 2.89234721,161.772046 2.87314924,160.379618 L3.03478376,71.7511141 L10.6111695,69.997476 C20.1333624,67.793588 34.5014944,56.6143819 51.0408548,38.5368169 C64.2837381,24.0549362 74.3471898,10.2209607 74.4592812,10.086454 L79.8142761,2.6690132 Z" id="path-54"></path>
        <filter x="-6.8%" y="-3.6%" width="113.6%" height="108.7%" filterUnits="objectBoundingBox" id="filter-55">
            <feMorphology radius="0.5" operator="dilate" in="SourceAlpha" result="shadowSpreadOuter1"></feMorphology>
            <feOffset dx="0" dy="2" in="shadowSpreadOuter1" result="shadowOffsetOuter1"></feOffset>
            <feGaussianBlur stdDeviation="3" in="shadowOffsetOuter1" result="shadowBlurOuter1"></feGaussianBlur>
            <feComposite in="shadowBlurOuter1" in2="SourceAlpha" operator="out" result="shadowBlurOuter1"></feComposite>
            <feColorMatrix values="0 0 0 0 0.340891768   0 0 0 0 0.670484144   0 0 0 0 1  0 0 0 0.600688374 0" type="matrix" in="shadowBlurOuter1"></feColorMatrix>
        </filter>
        <filter x="-6.2%" y="-3.1%" width="112.3%" height="107.9%" filterUnits="objectBoundingBox" id="filter-56">
            <feGaussianBlur stdDeviation="2.5" in="SourceAlpha" result="shadowBlurInner1"></feGaussianBlur>
            <feOffset dx="0" dy="1" in="shadowBlurInner1" result="shadowOffsetInner1"></feOffset>
            <feComposite in="shadowOffsetInner1" in2="SourceAlpha" operator="arithmetic" k2="-1" k3="1" result="shadowInnerInner1"></feComposite>
            <feColorMatrix values="0 0 0 0 1   0 0 0 0 1   0 0 0 0 1  0 0 0 0.522454108 0" type="matrix" in="shadowInnerInner1"></feColorMatrix>
        </filter>
        <linearGradient x1="61.4904868%" y1="15.4077652%" x2="42.9439332%" y2="68.6151107%" id="linearGradient-57">
            <stop stop-color="#EBEBEB" offset="0%"></stop>
            <stop stop-color="#F5F5F5" offset="100%"></stop>
        </linearGradient>
        <linearGradient x1="50.6225112%" y1="6.41772533%" x2="48.7340887%" y2="96.9987937%" id="linearGradient-58">
            <stop stop-color="#2260ED" offset="0%"></stop>
            <stop stop-color="#7188FF" offset="100%"></stop>
        </linearGradient>
        <path d="M111.814276,19.6690132 L117.172987,24.4846071 C155.227697,58.8130538 180.95917,54.2940995 181.200692,54.239602 L188.751687,52.5520386 L188.590672,139.201145 C188.526885,173.61815 172.608053,195.000353 171.935505,195.907612 L111.603098,260.917511 L107.129972,258.53944 C105.424449,257.637135 64.9415046,236.051805 51.0966721,222.667105 C35.8733015,207.947216 34.8923472,175.698962 34.8731492,174.333429 L35.0347838,87.4167898 L42.6111695,85.6970234 C52.1333624,83.5357036 66.5014944,72.5724244 83.0408548,54.8440284 C96.2837381,40.641866 106.34719,27.0750944 106.459281,26.9431858 L111.814276,19.6690132 Z" id="path-59"></path>
        <filter x="-8.1%" y="-5.2%" width="116.2%" height="110.4%" filterUnits="objectBoundingBox" id="filter-60">
            <feGaussianBlur stdDeviation="12" in="SourceAlpha" result="shadowBlurInner1"></feGaussianBlur>
            <feOffset dx="0" dy="1" in="shadowBlurInner1" result="shadowOffsetInner1"></feOffset>
            <feComposite in="shadowOffsetInner1" in2="SourceAlpha" operator="arithmetic" k2="-1" k3="1" result="shadowInnerInner1"></feComposite>
            <feColorMatrix values="0 0 0 0 0.820903201   0 0 0 0 0.87057156   0 0 0 0 1  0 0 0 0.342766608 0" type="matrix" in="shadowInnerInner1"></feColorMatrix>
        </filter>
        <linearGradient x1="50%" y1="0%" x2="50%" y2="100%" id="linearGradient-61">
            <stop stop-color="#FFFFFF" stop-opacity="0.594105114" offset="0%"></stop>
            <stop stop-color="#FFFFFF" stop-opacity="0" offset="100%"></stop>
        </linearGradient>
        <path d="M131.814276,25.6690132 L137.172987,30.5794525 C175.227697,65.5840141 200.95917,60.9760568 201.200692,60.920486 L208.751687,59.1996852 L208.590672,147.555387 C208.526885,182.650251 192.608053,204.453586 191.935505,205.378714 L131.603098,271.669013 L127.129972,269.244105 C125.424449,268.324029 84.9415046,246.313566 71.0966721,232.665247 C55.8733015,217.655444 54.8923472,184.772046 54.8731492,183.379618 L55.0347838,94.7511141 L62.6111695,92.997476 C72.1333624,90.793588 86.5014944,79.6143819 103.040855,61.5368169 C116.283738,47.0549362 126.34719,33.2209607 126.459281,33.086454 L131.814276,25.6690132 Z" id="path-62"></path>
        <filter x="-1.6%" y="-1.1%" width="103.3%" height="102.2%" filterUnits="objectBoundingBox" id="filter-63">
            <feGaussianBlur stdDeviation="1.5" in="SourceAlpha" result="shadowBlurInner1"></feGaussianBlur>
            <feOffset dx="0" dy="1" in="shadowBlurInner1" result="shadowOffsetInner1"></feOffset>
            <feComposite in="shadowOffsetInner1" in2="SourceAlpha" operator="arithmetic" k2="-1" k3="1" result="shadowInnerInner1"></feComposite>
            <feColorMatrix values="0 0 0 0 1   0 0 0 0 1   0 0 0 0 1  0 0 0 0.61213396 0" type="matrix" in="shadowInnerInner1"></feColorMatrix>
        </filter>
        <path d="M137.814276,27.6690132 L143.172987,32.5794525 C181.227697,67.5840141 206.95917,62.9760568 207.200692,62.920486 L214.751687,61.1996852 L214.590672,149.555387 C214.526885,184.650251 198.608053,206.453586 197.935505,207.378714 L137.603098,273.669013 L133.129972,271.244105 C131.424449,270.324029 90.9415046,248.313566 77.0966721,234.665247 C61.8733015,219.655444 60.8923472,186.772046 60.8731492,185.379618 L61.0347838,96.7511141 L68.6111695,94.997476 C78.1333624,92.793588 92.5014944,81.6143819 109.040855,63.5368169 C122.283738,49.0549362 132.34719,35.2209607 132.459281,35.086454 L137.814276,27.6690132 Z" id="path-64"></path>
        <filter x="-4.2%" y="-2.6%" width="108.4%" height="105.3%" filterUnits="objectBoundingBox" id="filter-65">
            <feGaussianBlur stdDeviation="5" in="SourceAlpha" result="shadowBlurInner1"></feGaussianBlur>
            <feOffset dx="0" dy="3" in="shadowBlurInner1" result="shadowOffsetInner1"></feOffset>
            <feComposite in="shadowOffsetInner1" in2="SourceAlpha" operator="arithmetic" k2="-1" k3="1" result="shadowInnerInner1"></feComposite>
            <feColorMatrix values="0 0 0 0 1   0 0 0 0 1   0 0 0 0 1  0 0 0 0.61213396 0" type="matrix" in="shadowInnerInner1"></feColorMatrix>
        </filter>
        <filter x="-3.9%" y="0.6%" width="107.1%" height="98.2%" filterUnits="objectBoundingBox" id="filter-66">
            <feGaussianBlur stdDeviation="1" in="SourceGraphic"></feGaussianBlur>
        </filter>
        <linearGradient x1="50%" y1="24.9854329%" x2="50%" y2="76.2789444%" id="linearGradient-67">
            <stop stop-color="#055FFF" stop-opacity="0.742543787" offset="0%"></stop>
            <stop stop-color="#223EFF" stop-opacity="0.729118614" offset="100%"></stop>
        </linearGradient>
        <linearGradient x1="50%" y1="15.2925567%" x2="50%" y2="82.1283191%" id="linearGradient-68">
            <stop stop-color="#FFFFFF" stop-opacity="0.785347465" offset="0%"></stop>
            <stop stop-color="#FFFFFF" stop-opacity="0" offset="100%"></stop>
        </linearGradient>
        <path d="M12.1353479,36.0022299 L12.6665886,34.3172701 L14.9662551,33.5673339 L15.5295843,34.8953474 L16.317532,34.6383925 L14.2139611,29.8016157 L13.450971,30.0504317 L11.3474001,36.2591848 L12.1353479,36.0022299 Z M14.7452019,33.0154803 L12.8912072,33.62008 L13.7183741,31.0542344 C13.7516509,30.9530598 13.7813624,30.8150172 13.8075084,30.6401067 L13.8253353,30.6342932 C13.8562352,30.8072391 13.8847582,30.926291 13.9109043,30.991449 L14.7452019,33.0154803 Z M19.0842626,33.8288435 C20.5009047,33.3668674 21.2092257,32.3550623 21.2092257,30.7934283 L21.2092257,27.5204146 L20.4961508,27.7529529 L20.4961508,31.1293625 C20.4961508,32.1989748 20.0481021,32.8798926 19.1520047,33.1721157 C18.2250073,33.4744156 17.7615087,33.0729325 17.7615087,31.9676664 L17.7615087,28.6447374 L17.0484338,28.8772758 L17.0484338,32.2322931 C17.0484338,33.739258 17.7270434,34.2714415 19.0842626,33.8288435 Z M24.3111015,32.0316378 L24.3111015,27.1435094 L25.9048238,26.6237863 L25.9048238,25.9891496 L22.0078696,27.2599716 L22.0078696,27.8946083 L23.5944612,27.3772105 L23.5944612,32.2653388 L24.3111015,32.0316378 Z M27.4664578,31.0026556 L27.4664578,28.5140243 L30.2617114,27.602474 L30.2617114,30.0911053 L30.9747862,29.858567 L30.9747862,24.335802 L30.2617114,24.5683404 L30.2617114,26.9678373 L27.4664578,27.8793876 L27.4664578,25.4798906 L26.7533829,25.712429 L26.7533829,31.2351939 L27.4664578,31.0026556 Z M35.3708929,28.4249681 L35.3708929,27.7938968 L33.1140109,28.5298807 L33.1140109,26.6723206 L35.0892283,26.0281894 L35.0892283,25.3971181 L33.1140109,26.0412493 L33.1140109,24.2728236 L35.2461048,23.577534 L35.2461048,22.9428974 L32.400936,23.8707253 L32.400936,29.3934903 L35.3708929,28.4249681 Z M37.1214917,27.8540865 L37.1214917,23.9713938 C37.1214917,23.5792026 37.1119841,23.3244077 37.0929687,23.207009 L37.114361,23.2000329 C37.1618993,23.3033762 37.2248876,23.4028695 37.3033258,23.498513 L40.0807525,26.8890524 L40.9257462,26.6134944 L40.9257462,21.0907295 L40.2198021,21.3209424 L40.2198021,25.1180662 C40.2198021,25.4983728 40.2316867,25.7630887 40.2554558,25.9122139 L40.2411943,25.9168647 C40.2174252,25.8699469 40.1413638,25.7675859 40.0130104,25.6097819 L37.3104566,22.2696989 L36.4155476,22.5615345 L36.4155476,28.0842994 L37.1214917,27.8540865 Z M44.0953641,25.5798615 L44.0953641,20.6917332 L45.6890864,20.17201 L45.6890864,19.5373734 L41.7921322,20.8081954 L41.7921322,21.442832 L43.3787238,20.9254342 L43.3787238,25.8135626 L44.0953641,25.5798615 Z M47.2507204,24.5508794 L47.2507204,19.0281144 L46.5376455,19.2606528 L46.5376455,24.7834177 L47.2507204,24.5508794 Z M50.9337522,23.4425186 C51.5469966,23.2425356 52.0568451,22.9693095 52.4632978,22.6228402 L52.4632978,21.9382883 C52.059222,22.3172593 51.5838388,22.5958845 51.037148,22.7741639 C50.4524266,22.9648453 49.9794203,22.9247828 49.618129,22.6539765 C49.2568378,22.3831701 49.0761921,21.9173755 49.0761921,21.2565928 C49.0761921,20.5601563 49.2699108,19.9437562 49.6573481,19.4073923 C50.0447855,18.8710284 50.5463148,18.5024674 51.1619361,18.3017093 C51.6349425,18.1474589 52.0687297,18.1153362 52.4632978,18.2053413 L52.4632978,17.460178 C52.1186449,17.4228258 51.6824808,17.4901889 51.1548054,17.6622673 C50.3347693,17.9296864 49.6585366,18.4211787 49.1261074,19.1367442 C48.5936781,19.8523098 48.3274635,20.6545759 48.3274635,21.5435425 C48.3274635,22.3707094 48.5639667,22.9585265 49.036973,23.3069939 C49.5099793,23.6554612 50.1422391,23.7006361 50.9337522,23.4425186 Z M53.7254403,22.4394313 L54.2566811,20.7544714 L56.5563476,20.0045353 L57.1196768,21.3325488 L57.9076245,21.0755939 L55.8040536,16.238817 L55.0410635,16.4876331 L52.9374926,22.6963861 L53.7254403,22.4394313 Z M56.3352944,19.4526817 L54.4812997,20.0572813 L55.3084666,17.4914357 C55.3417434,17.3902611 55.3714549,17.2522186 55.3976009,17.077308 L55.4154278,17.0714946 C55.4463277,17.2444405 55.4748507,17.3634924 55.5009968,17.4286504 L56.3352944,19.4526817 Z M60.4497365,20.2465947 L60.4497365,15.3584664 L62.0434588,14.8387432 L62.0434588,14.2041066 L58.1465046,15.4749286 L58.1465046,16.1095652 L59.7330962,15.5921674 L59.7330962,20.4802957 L60.4497365,20.2465947 Z M63.6050928,19.2176126 L63.6050928,13.6948476 L62.892018,13.9273859 L62.892018,19.4501509 L63.6050928,19.2176126 Z M67.2774285,18.1127398 C68.0808262,17.8507467 68.7225936,17.3788129 69.2027307,16.6969386 C69.6828678,16.0150643 69.9229363,15.2260784 69.9229363,14.329981 C69.9229363,13.5028141 69.68881,12.9076853 69.2205575,12.5445947 C68.752305,12.181504 68.1343068,12.1251418 67.3665628,12.3755081 C66.5417729,12.6444775 65.8881209,13.1214753 65.4056069,13.8065017 C64.9230929,14.491528 64.6818359,15.279713 64.6818359,16.1710566 C64.6818359,16.9982235 64.9183391,17.5925771 65.3913454,17.9541175 C65.8643518,18.3156579 66.4930461,18.368532 67.2774285,18.1127398 Z M67.2774285,17.4781032 C66.7283608,17.6571577 66.2832833,17.6008567 65.9421958,17.3092003 C65.6011083,17.0175438 65.4305645,16.5377588 65.4305645,15.8698454 C65.4305645,15.2066857 65.6052679,14.6137192 65.9546746,14.0909458 C66.3040813,13.5681724 66.7604492,13.2149331 67.3237783,13.0312278 C67.8966152,12.844422 68.347635,12.8910602 68.6768379,13.1711423 C69.0060408,13.4512245 69.1706423,13.947803 69.1706423,14.6608779 C69.1706423,15.3549375 69.0024755,15.949932 68.6661418,16.4458614 C68.3298082,16.9417909 67.8669037,17.2858715 67.2774285,17.4781032 Z M71.6949274,16.5794651 L71.6944817,12.5561411 C71.6924019,12.2430293 71.6830428,12.0351114 71.6664044,11.9323877 L71.6877966,11.9254115 C71.735335,12.0287548 71.7983232,12.1282481 71.8767615,12.2238917 L74.6541881,15.614431 L75.4991819,15.3388731 L75.4991819,9.8161081 L74.7932377,10.0463211 L74.7932377,13.8434448 C74.7932377,14.2237514 74.8051223,14.4884673 74.8288915,14.6375925 L74.81463,14.6422433 C74.7908608,14.5953255 74.7147995,14.4929645 74.586446,14.3351605 L71.8838922,10.9950775 L70.9889832,11.2869131 L70.9889832,16.8096781 L71.6949274,16.5794651 Z" id="path-69"></path>
        <filter x="-3.9%" y="-5.7%" width="107.8%" height="122.7%" filterUnits="objectBoundingBox" id="filter-70">
            <feOffset dx="0" dy="2" in="SourceAlpha" result="shadowOffsetOuter1"></feOffset>
            <feGaussianBlur stdDeviation="0.5" in="shadowOffsetOuter1" result="shadowBlurOuter1"></feGaussianBlur>
            <feColorMatrix values="0 0 0 0 0.285326087   0 0 0 0 0.0654869039   0 0 0 0 0.0654869039  0 0 0 0.5 0" type="matrix" in="shadowBlurOuter1"></feColorMatrix>
        </filter>
        <filter x="-3.4%" y="-4.1%" width="106.8%" height="108.3%" filterUnits="objectBoundingBox" id="filter-71">
            <feGaussianBlur stdDeviation="1" in="SourceGraphic"></feGaussianBlur>
        </filter>
        <linearGradient x1="77.7821408%" y1="12.890226%" x2="3.99620378%" y2="91.6903063%" id="linearGradient-72">
            <stop stop-color="#FFFFFF" stop-opacity="0.357708698" offset="0.0655594406%"></stop>
            <stop stop-color="#FFFFFF" stop-opacity="0.730714598" offset="100%"></stop>
        </linearGradient>
        <linearGradient x1="50%" y1="15.2925567%" x2="50%" y2="81.7430933%" id="linearGradient-73">
            <stop stop-color="#FFFFFF" stop-opacity="0.86680507" offset="0%"></stop>
            <stop stop-color="#FFFFFF" stop-opacity="0.396798514" offset="100%"></stop>
        </linearGradient>
        <linearGradient x1="91.8633398%" y1="21.1652233%" x2="24.6988188%" y2="98.3926867%" id="linearGradient-74">
            <stop stop-color="#FFFFFF" stop-opacity="0" offset="0%"></stop>
            <stop stop-color="#FFFFFF" stop-opacity="0.369700612" offset="100%"></stop>
        </linearGradient>
        <path d="M87.6909388,1.50064468 C88.7452679,1.49240831 89.6154668,2.3014612 89.6999598,3.335688 L89.7066203,3.48490254 L90.010133,42.0291386 C90.0189591,43.162228 89.3894767,44.1974245 88.3937858,44.7146508 L88.2143296,44.8004636 L55.4156065,59.1736447 L41.2763182,74.7005782 L41.2756065,65.3706447 L16.8284046,76.0856922 C16.62592,76.1744321 16.4104811,76.228832 16.190916,76.2470424 L16.0256065,76.2538857 C14.9712447,76.2538857 14.1074414,75.4380079 14.0310922,74.4031481 L14.0256065,74.2538857 L14.0256065,33.2519896 C14.0256065,32.0948815 14.6901866,31.047211 15.7224888,30.5497537 L15.8978931,30.4720143 L86.9548733,1.64732916 C87.1887777,1.55244445 87.4385295,1.50269492 87.6909388,1.50064468 Z" id="path-75"></path>
        <filter x="-4.6%" y="-4.7%" width="109.2%" height="109.4%" filterUnits="objectBoundingBox" id="filter-76">
            <feGaussianBlur stdDeviation="3" in="SourceAlpha" result="shadowBlurInner1"></feGaussianBlur>
            <feOffset dx="0" dy="1" in="shadowBlurInner1" result="shadowOffsetInner1"></feOffset>
            <feComposite in="shadowOffsetInner1" in2="SourceAlpha" operator="arithmetic" k2="-1" k3="1" result="shadowInnerInner1"></feComposite>
            <feColorMatrix values="0 0 0 0 1   0 0 0 0 1   0 0 0 0 1  0 0 0 0.13158326 0" type="matrix" in="shadowInnerInner1"></feColorMatrix>
        </filter>
        <linearGradient x1="95.1084824%" y1="37.6026125%" x2="1.71702488%" y2="54.6192335%" id="linearGradient-77">
            <stop stop-color="#BFBFBF" offset="0%"></stop>
            <stop stop-color="#DDDDDD" offset="100%"></stop>
        </linearGradient>
        <path d="M80.7792516,16.3618005 C81.7996981,15.9389971 82.9696833,16.4234826 83.3924868,17.4439291 C83.7951567,18.4157829 83.3748888,19.5232727 82.4524502,19.9917777 L82.3103582,20.0571642 L24.2639606,44.1076313 C23.2435142,44.5304347 22.0735289,44.0459493 21.6507255,43.0255028 C21.2480556,42.053649 21.6683234,40.9461591 22.5907621,40.4776542 L22.7328541,40.4122677 L80.7792516,16.3618005 Z" id="path-78"></path>
        <filter x="-1.6%" y="-3.6%" width="103.2%" height="107.1%" filterUnits="objectBoundingBox" id="filter-79">
            <feGaussianBlur stdDeviation="0.5" in="SourceAlpha" result="shadowBlurInner1"></feGaussianBlur>
            <feOffset dx="0" dy="1" in="shadowBlurInner1" result="shadowOffsetInner1"></feOffset>
            <feComposite in="shadowOffsetInner1" in2="SourceAlpha" operator="arithmetic" k2="-1" k3="1" result="shadowInnerInner1"></feComposite>
            <feColorMatrix values="0 0 0 0 1   0 0 0 0 1   0 0 0 0 1  0 0 0 1 0" type="matrix" in="shadowInnerInner1"></feColorMatrix>
        </filter>
        <path d="M80.7792516,27.3618005 C81.7996981,26.9389971 82.9696833,27.4234826 83.3924868,28.4439291 C83.7951567,29.4157829 83.3748888,30.5232727 82.4524502,30.9917777 L82.3103582,31.0571642 L24.2639606,55.1076313 C23.2435142,55.5304347 22.0735289,55.0459493 21.6507255,54.0255028 C21.2480556,53.053649 21.6683234,51.9461591 22.5907621,51.4776542 L22.7328541,51.4122677 L80.7792516,27.3618005 Z" id="path-80"></path>
        <filter x="-1.6%" y="-3.6%" width="103.2%" height="107.1%" filterUnits="objectBoundingBox" id="filter-81">
            <feGaussianBlur stdDeviation="0.5" in="SourceAlpha" result="shadowBlurInner1"></feGaussianBlur>
            <feOffset dx="0" dy="1" in="shadowBlurInner1" result="shadowOffsetInner1"></feOffset>
            <feComposite in="shadowOffsetInner1" in2="SourceAlpha" operator="arithmetic" k2="-1" k3="1" result="shadowInnerInner1"></feComposite>
            <feColorMatrix values="0 0 0 0 1   0 0 0 0 1   0 0 0 0 1  0 0 0 1 0" type="matrix" in="shadowInnerInner1"></feColorMatrix>
        </filter>
        <linearGradient x1="95.1084824%" y1="34.8008447%" x2="1.71702488%" y2="55.6631647%" id="linearGradient-82">
            <stop stop-color="#BFBFBF" offset="0%"></stop>
            <stop stop-color="#DDDDDD" offset="100%"></stop>
        </linearGradient>
        <path d="M50.3194022,50.6010669 C51.3398487,50.1782635 52.509834,50.6627489 52.9326374,51.6831954 C53.3353073,52.6550492 52.9150395,53.762539 51.9926008,54.231044 L51.8505088,54.2964305 L24.2639606,66.1076313 C23.2435142,66.5304347 22.0735289,66.0459493 21.6507255,65.0255028 C21.2480556,64.053649 21.6683234,62.9461591 22.5907621,62.4776542 L22.7328541,62.4122677 L50.3194022,50.6010669 Z" id="path-83"></path>
        <filter x="-3.2%" y="-6.3%" width="106.3%" height="112.6%" filterUnits="objectBoundingBox" id="filter-84">
            <feGaussianBlur stdDeviation="0.5" in="SourceAlpha" result="shadowBlurInner1"></feGaussianBlur>
            <feOffset dx="0" dy="1" in="shadowBlurInner1" result="shadowOffsetInner1"></feOffset>
            <feComposite in="shadowOffsetInner1" in2="SourceAlpha" operator="arithmetic" k2="-1" k3="1" result="shadowInnerInner1"></feComposite>
            <feColorMatrix values="0 0 0 0 1   0 0 0 0 1   0 0 0 0 1  0 0 0 1 0" type="matrix" in="shadowInnerInner1"></feColorMatrix>
        </filter>
        <filter x="-6.4%" y="-2.6%" width="112.8%" height="105.2%" filterUnits="objectBoundingBox" id="filter-85">
            <feGaussianBlur stdDeviation="1" in="SourceGraphic"></feGaussianBlur>
        </filter>
        <path d="M57.0002138,78.2598377 C57.018218,68.4775867 50.975138,62.9024393 43.5321563,65.801765 C36.0855496,68.7034515 30.0176979,78.9978952 30.0000467,88.7479842 C29.9814467,98.4982308 36.0215057,104.075037 43.4681125,101.17335 C47.0932355,99.7609913 50.5062887,96.5752916 53.0789177,92.2025684 C55.6146912,87.8763709 57.0079468,82.9282912 57.0002138,78.2598377 Z M48.452766,51.5188317 C59.0574452,50.3415864 67.0270595,59.522915 67.0002011,74.2146238 C67.0147891,82.3062783 64.5846396,90.9160102 60.1519634,98.4242105 C55.6818626,105.984394 49.7528131,111.495096 43.4446088,113.943586 C30.4846294,118.974828 19.969524,109.338311 20.0000664,92.4594359 C20.0271948,77.7670852 28.041596,62.3812582 38.6573186,55.3209367 L38.74996,4.58078316 L48.5454074,0.77867814 L48.5374316,5.13689895 L61.7704271,-7.10542736e-15 L61.7471133,12.7524972 L48.5141179,17.8893961 L48.4993934,26.1160055 L61.7317754,20.9791928 L61.7084616,33.73169 L48.4760797,38.8685027 L48.452766,51.5188317 Z" id="path-86"></path>
        <filter x="-4.3%" y="-1.7%" width="108.5%" height="103.5%" filterUnits="objectBoundingBox" id="filter-87">
            <feGaussianBlur stdDeviation="1.5" in="SourceAlpha" result="shadowBlurInner1"></feGaussianBlur>
            <feOffset dx="0" dy="1" in="shadowBlurInner1" result="shadowOffsetInner1"></feOffset>
            <feComposite in="shadowOffsetInner1" in2="SourceAlpha" operator="arithmetic" k2="-1" k3="1" result="shadowInnerInner1"></feComposite>
            <feColorMatrix values="0 0 0 0 1   0 0 0 0 1   0 0 0 0 1  0 0 0 0.5 0" type="matrix" in="shadowInnerInner1"></feColorMatrix>
        </filter>
        <path d="M60.0002138,79.2598377 C60.018218,69.4775867 53.975138,63.9024393 46.5321563,66.801765 C39.0855496,69.7034515 33.0176979,79.9978952 33.0000467,89.7479842 C32.9814467,99.4982308 39.0215057,105.075037 46.4681125,102.17335 C50.0932355,100.760991 53.5062887,97.5752916 56.0789177,93.2025684 C58.6146912,88.8763709 60.0079468,83.9282912 60.0002138,79.2598377 Z M51.452766,52.5188317 C62.0574452,51.3415864 70.0270595,60.522915 70.0002011,75.2146238 C70.0147891,83.3062783 67.5846396,91.9160102 63.1519634,99.4242105 C58.6818626,106.984394 52.7528131,112.495096 46.4446088,114.943586 C33.4846294,119.974828 22.969524,110.338311 23.0000664,93.4594359 C23.0271948,78.7670852 31.041596,63.3812582 41.6573186,56.3209367 L41.74996,5.58078316 L51.5454074,1.77867814 L51.5374316,6.13689895 L64.7704271,1 L64.7471133,13.7524972 L51.5141179,18.8893961 L51.4993934,27.1160055 L64.7317754,21.9791928 L64.7084616,34.73169 L51.4760797,39.8685027 L51.452766,52.5188317 Z" id="path-88"></path>
        <filter x="-4.3%" y="-1.7%" width="108.5%" height="103.5%" filterUnits="objectBoundingBox" id="filter-89">
            <feGaussianBlur stdDeviation="1.5" in="SourceAlpha" result="shadowBlurInner1"></feGaussianBlur>
            <feOffset dx="0" dy="1" in="shadowBlurInner1" result="shadowOffsetInner1"></feOffset>
            <feComposite in="shadowOffsetInner1" in2="SourceAlpha" operator="arithmetic" k2="-1" k3="1" result="shadowInnerInner1"></feComposite>
            <feColorMatrix values="0 0 0 0 1   0 0 0 0 1   0 0 0 0 1  0 0 0 0.5 0" type="matrix" in="shadowInnerInner1"></feColorMatrix>
        </filter>
        <path d="M60.0002138,79.2598377 C60.018218,69.4775867 53.975138,63.9024393 46.5321563,66.801765 C39.0855496,69.7034515 33.0176979,79.9978952 33.0000467,89.7479842 C32.9814467,99.4982308 39.0215057,105.075037 46.4681125,102.17335 C50.0932355,100.760991 53.5062887,97.5752916 56.0789177,93.2025684 C58.6146912,88.8763709 60.0079468,83.9282912 60.0002138,79.2598377 Z M51.452766,52.5188317 C62.0574452,51.3415864 70.0270595,60.522915 70.0002011,75.2146238 C70.0147891,83.3062783 67.5846396,91.9160102 63.1519634,99.4242105 C58.6818626,106.984394 52.7528131,112.495096 46.4446088,114.943586 C33.4846294,119.974828 22.969524,110.338311 23.0000664,93.4594359 C23.0271948,78.7670852 31.041596,63.3812582 41.6573186,56.3209367 L41.74996,5.58078316 L51.5454074,1.77867814 L51.5374316,6.13689895 L64.7704271,1 L64.7471133,13.7524972 L51.5141179,18.8893961 L51.4993934,27.1160055 L64.7317754,21.9791928 L64.7084616,34.73169 L51.4760797,39.8685027 L51.452766,52.5188317 Z" id="path-90"></path>
        <filter x="-5.3%" y="-2.2%" width="110.6%" height="104.3%" filterUnits="objectBoundingBox" id="filter-91">
            <feGaussianBlur stdDeviation="1.5" in="SourceAlpha" result="shadowBlurInner1"></feGaussianBlur>
            <feOffset dx="0" dy="1" in="shadowBlurInner1" result="shadowOffsetInner1"></feOffset>
            <feComposite in="shadowOffsetInner1" in2="SourceAlpha" operator="arithmetic" k2="-1" k3="1" result="shadowInnerInner1"></feComposite>
            <feColorMatrix values="0 0 0 0 1   0 0 0 0 1   0 0 0 0 1  0 0 0 0.5 0" type="matrix" in="shadowInnerInner1"></feColorMatrix>
        </filter>
    </defs>
    <g id="页面-2" stroke="none" stroke-width="1" fill="none" fill-rule="evenodd">
        <g id="登录01" transform="translate(-138.000000, -156.000000)">
            <g id="左侧" transform="translate(138.011554, 159.000000)">
                <g id="编组-7" transform="translate(142.800864, 40.773563)"></g>
                <g id="编组" opacity="0.525663154" transform="translate(110.484990, 114.964108) rotate(-11.000000) translate(-110.484990, -114.964108) translate(80.984990, 93.964108)">
                    <polygon id="Fill-1" fill-opacity="0.34" fill="#0D0C57" points="47.1578225 33.5911272 43.6217563 32.3923192 40.6191735 29.7471536 44.1552397 30.9459616"></polygon>
                    <polygon id="Fill-2" fill-opacity="0.66" fill="url(#linearGradient-1)" fill-rule="nonzero" points="44.1551285 30.945906 40.6190623 29.747098 49.5141616 15.3146742 53.0502278 16.5134821"></polygon>
                    <polygon id="Fill-3" fill-opacity="0.65" fill="url(#linearGradient-2)" points="44.2012172 6.10649404 53.0501444 16.5135934 44.155045 30.9457391 47.157906 33.5911828 58.4381046 15.2905868 47.2163166 2.09535497"></polygon>
                    <polygon id="Fill-4" fill-opacity="0.34" fill="#0D0C57" points="53.0502278 16.5135656 49.5141616 15.3147576 40.6652344 4.90765828 44.2013007 6.10646623"></polygon>
                    <polygon id="Fill-5" fill-opacity="0.66" fill="url(#linearGradient-3)" fill-rule="nonzero" points="44.2013007 6.10657748 40.6652344 4.90776954 43.6803338 0.896630464 47.2164 2.09543841"></polygon>
                    <polygon id="Fill-6" fill-opacity="0.65" fill="url(#linearGradient-2)" points="14.8142901 9.45005563 17.819098 12.094943 8.92399868 26.5295921 17.7729258 36.9341881 14.7558795 40.9458834 3.53603841 27.7525987"></polygon>
                    <polygon id="Fill-7" fill-opacity="0.34" fill="#0D0C57" points="11.2195907 39.7472424 14.755657 40.9457722 3.53609404 27.7524874 2.78145695e-05 26.5536795"></polygon>
                    <polygon id="Fill-8" fill-opacity="0.66" fill="url(#linearGradient-4)" fill-rule="nonzero" points="0 26.5537907 3.53606623 27.7525987 14.8143179 9.45005563 11.2782517 8.25124768"></polygon>
                    <polygon id="Fill-9" fill-opacity="0.65" fill="url(#linearGradient-5)" points="22.2339099 39.2786225 25.756347 41.8420132 40.005751 3.76219868 36.4833139 1.19880795"></polygon>
                    <polygon id="Fill-10" fill-opacity="0.34" fill="#0D0C57" points="22.2203921 40.6431775 25.7561801 41.8419854 22.2340212 39.2785947 18.697955 38.0797868"></polygon>
                    <polygon id="Fill-11" fill-opacity="0.66" fill="url(#linearGradient-6)" fill-rule="nonzero" points="32.9470808 -8.34437086e-05 18.697955 38.0797311 22.2340212 39.2785391 36.483147 1.1987245"></polygon>
                </g>
                <g id="编组" transform="translate(66.505300, 36.000000)">
                    <g transform="translate(0.000000, 0.438202)">
                        <path d="M1.29556434,41.8411669 L1.29556434,161.239283 C1.29556434,162.343852 2.19099484,163.239283 3.29556434,163.239283 C3.54994283,163.239283 3.80198606,163.190755 4.03817903,163.096303 L108.646371,121.263916 C109.778695,120.811104 110.524235,119.717907 110.532382,118.498427 L111.302654,3.19594709 C111.310033,2.09140224 110.420604,1.19000998 109.316059,1.18263112 C109.0818,1.18106617 108.849087,1.22066992 108.628533,1.29963642 L3.28431623,39.0167418 C2.0914968,39.443815 1.29556434,40.5741982 1.29556434,41.8411669 Z" id="路径-9" stroke="url(#linearGradient-8)" stroke-width="1.4" fill-opacity="0.39" fill="url(#linearGradient-7)" opacity="0.7"></path>
                        <g id="编组-9" transform="translate(0.295564, 0.230811)">
                            <mask id="mask-10" fill="white">
                                <use xlink:href="#path-9"></use>
                            </mask>
                            <g id="路径-9" opacity="0.7"></g>
                            <path d="M142.001858,-42 L147.360569,-37.0895607 C185.415279,-2.08499911 211.146751,-6.69295636 211.388274,-6.74852717 L218.939269,-8.46932798 L218.778254,79.8863735 C218.714467,114.981238 202.795635,136.784573 202.123086,137.709701 L141.79068,204 L137.317553,201.575092 C135.61203,200.655016 95.1290863,178.644553 81.2842538,164.996234 C66.0608832,149.986431 65.0799289,117.103032 65.060731,115.710605 L65.2223655,27.082101 L72.7987513,25.3284628 C82.3209442,23.1245748 96.6890761,11.9453687 113.228437,-6.13219632 C126.47132,-20.614077 136.534772,-34.4480525 136.646863,-34.5825592 L142.001858,-42 Z" id="Fill-7备份" fill-opacity="0.21" fill="#000000" filter="url(#filter-11)" mask="url(#mask-10)"></path>
                        </g>
                        <polygon id="路径-5" fill-opacity="0.09" fill="#FFFFFF" points="11.0600934 131.04778 50.0810307 114.867465 50.0810307 118.296572 11.0600934 134.401638"></polygon>
                        <polygon id="路径-5备份-2" fill-opacity="0.09" fill="#FFFFFF" points="27.2291588 43.936372 102.081031 15.8674654 102.081031 19.2965724 27.2291588 47.2902297"></polygon>
                        <polygon id="路径-5备份" fill-opacity="0.09" fill="#FFFFFF" points="11.0600934 141.04778 50.0810307 124.867465 50.0810307 128.296572 11.0600934 144.401638"></polygon>
                        <mask id="mask-13" fill="white">
                            <use xlink:href="#path-12"></use>
                        </mask>
                        <g id="路径-9"></g>
                        <polygon id="路径-4" fill="#374CEF" filter="url(#filter-14)" mask="url(#mask-13)" points="82.2352039 9.23081095 104.483146 87.5617978 111.483146 70.9998669 92.2544958 4.785546"></polygon>
                    </g>
                </g>
                <g id="编组" transform="translate(115.484990, 114.964108) rotate(-11.000000) translate(-115.484990, -114.964108) translate(85.984990, 93.964108)">
                    <polygon id="Fill-1" fill-opacity="0.34" fill="#0D0C57" points="47.1578225 33.5911272 43.6217563 32.3923192 40.6191735 29.7471536 44.1552397 30.9459616"></polygon>
                    <polygon id="Fill-2" fill-opacity="0.66" fill="url(#linearGradient-1)" fill-rule="nonzero" points="44.1551285 30.945906 40.6190623 29.747098 49.5141616 15.3146742 53.0502278 16.5134821"></polygon>
                    <polygon id="Fill-3" fill-opacity="0.65" fill="url(#linearGradient-2)" points="44.2012172 6.10649404 53.0501444 16.5135934 44.155045 30.9457391 47.157906 33.5911828 58.4381046 15.2905868 47.2163166 2.09535497"></polygon>
                    <polygon id="Fill-4" fill-opacity="0.34" fill="#0D0C57" points="53.0502278 16.5135656 49.5141616 15.3147576 40.6652344 4.90765828 44.2013007 6.10646623"></polygon>
                    <polygon id="Fill-5" fill-opacity="0.66" fill="url(#linearGradient-3)" fill-rule="nonzero" points="44.2013007 6.10657748 40.6652344 4.90776954 43.6803338 0.896630464 47.2164 2.09543841"></polygon>
                    <polygon id="Fill-6" fill-opacity="0.65" fill="url(#linearGradient-2)" points="14.8142901 9.45005563 17.819098 12.094943 8.92399868 26.5295921 17.7729258 36.9341881 14.7558795 40.9458834 3.53603841 27.7525987"></polygon>
                    <polygon id="Fill-7" fill-opacity="0.34" fill="#0D0C57" points="11.2195907 39.7472424 14.755657 40.9457722 3.53609404 27.7524874 2.78145695e-05 26.5536795"></polygon>
                    <polygon id="Fill-8" fill-opacity="0.66" fill="url(#linearGradient-4)" fill-rule="nonzero" points="0 26.5537907 3.53606623 27.7525987 14.8143179 9.45005563 11.2782517 8.25124768"></polygon>
                    <polygon id="Fill-9" fill-opacity="0.65" fill="url(#linearGradient-5)" points="22.2339099 39.2786225 25.756347 41.8420132 40.005751 3.76219868 36.4833139 1.19880795"></polygon>
                    <polygon id="Fill-10" fill-opacity="0.34" fill="#0D0C57" points="22.2203921 40.6431775 25.7561801 41.8419854 22.2340212 39.2785947 18.697955 38.0797868"></polygon>
                    <polygon id="Fill-11" fill-opacity="0.66" fill="url(#linearGradient-6)" fill-rule="nonzero" points="32.9470808 -8.34437086e-05 18.697955 38.0797311 22.2340212 39.2785391 36.483147 1.1987245"></polygon>
                </g>
                <g id="编组-2" transform="translate(52.000000, 225.631265)">
                    <g id="路径-7">
                        <use fill="black" fill-opacity="1" filter="url(#filter-17)" xlink:href="#path-16"></use>
                        <use stroke="url(#linearGradient-15)" stroke-width="1" xlink:href="#path-16"></use>
                    </g>
                    <g id="路径-7" opacity="0.4">
                        <use fill="black" fill-opacity="1" filter="url(#filter-20)" xlink:href="#path-19"></use>
                        <use stroke="url(#linearGradient-18)" stroke-width="1" xlink:href="#path-19"></use>
                    </g>
                    <polygon id="路径-7" fill="#283193" filter="url(#filter-21)" points="295.59472 23.4009156 361.682151 57.3621351 339.820366 97.2658186 242.745332 119.587855 125.574117 112.613749 60 79.5555147 81.940469 40.1623361 181.819576 16"></polygon>
                    <polygon id="路径-7备份" fill="url(#linearGradient-22)" points="360.682151 41.3621351 361.682151 48.3621351 340.027634 87.5624891 241.831249 110.117576 123.802147 102.440761 60 70.5555147 59 63.5555147 181.819576 7"></polygon>
                    <g id="路径-7">
                        <use fill="url(#linearGradient-23)" fill-rule="evenodd" xlink:href="#path-24"></use>
                        <use fill="black" fill-opacity="1" filter="url(#filter-25)" xlink:href="#path-24"></use>
                    </g>
                    <g id="路径-7">
                        <use fill="black" fill-opacity="1" filter="url(#filter-29)" xlink:href="#path-28"></use>
                        <use fill-opacity="0.29" fill="url(#linearGradient-26)" fill-rule="evenodd" xlink:href="#path-28"></use>
                        <use fill="black" fill-opacity="1" filter="url(#filter-30)" xlink:href="#path-28"></use>
                        <use stroke="url(#linearGradient-27)" stroke-width="1" xlink:href="#path-28"></use>
                    </g>
                </g>
                <g id="路径-10" transform="translate(36.813964, 143.773563)">
                    <path d="M0,23.801617 L0,105.100386 C-6.38089996e-15,106.204956 0.8954305,107.100386 2,107.100386 C2.29850207,107.100386 2.59321871,107.033569 2.86253451,106.904835 L53.5499465,82.676023 C54.5954597,82.176263 55.2596529,81.1190443 55.2561308,79.9602322 L55.0220123,2.93235439 C55.0186551,1.82778999 54.1205072,0.935085183 53.0159428,0.938442396 C52.7661154,0.939201722 52.5186418,0.986761272 52.2863296,1.07865967 L1.89646215,21.0119568 C0.75187509,21.4647342 -1.50740387e-16,22.5707283 0,23.801617 Z" id="路径-9" stroke="url(#linearGradient-32)" stroke-width="1.4" fill-opacity="0.39" fill="url(#linearGradient-31)" opacity="0.7"></path>
                    <mask id="mask-34" fill="white">
                        <use xlink:href="#path-33"></use>
                    </mask>
                    <g id="路径-9" opacity="0.7"></g>
                    <polygon id="路径-12" fill-opacity="0.21" fill="#000000" filter="url(#filter-35)" mask="url(#mask-34)" points="-5.72194887 53.9162515 60.9954257 26.330437 60.9954257 48.226437 -6 76.0775431"></polygon>
                </g>
                <g id="路径-9备份-3" transform="translate(0.813964, 82.683696)">
                    <path d="M290,89.8845605 L290,103.747055 C290,104.851625 290.895431,105.747055 292,105.747055 C292.258315,105.747055 292.514185,105.697015 292.753468,105.599698 L508.177833,17.9868818 C509.308328,17.5271108 510.047631,16.4283303 510.047631,15.2079171 L510.047631,2.95198453 C510.047631,1.84741503 509.152201,0.951984527 508.047631,0.951984527 C507.793633,0.951984527 507.541959,1.00036707 507.306065,1.09454539 L291.887651,87.0984017 C290.747713,87.5535118 290,88.6571306 290,89.8845605 Z" id="路径-9备份-2" stroke="url(#linearGradient-37)" stroke-width="1.4" fill-opacity="0.39" fill="url(#linearGradient-36)" opacity="0.7"></path>
                    <path d="M0,139.88456 L0,153.747055 C-7.26907838e-15,154.851625 0.8954305,155.747055 2,155.747055 C2.2583153,155.747055 2.51418459,155.697015 2.75346762,155.599698 L218.177833,67.9868818 C219.308328,67.5271108 220.047631,66.4283303 220.047631,65.2079171 L220.047631,52.9519845 C220.047631,51.847415 219.152201,50.9519845 218.047631,50.9519845 C217.793633,50.9519845 217.541959,51.0003671 217.306065,51.0945454 L1.8876513,137.098402 C0.747713157,137.553512 1.13960027e-14,138.657131 0,139.88456 Z" id="路径-9备份" stroke="url(#linearGradient-37)" stroke-width="1.4" fill-opacity="0.39" fill="url(#linearGradient-36)" opacity="0.7"></path>
                    <mask id="mask-39" fill="white">
                        <use xlink:href="#path-38"></use>
                    </mask>
                    <g id="路径-9备份" opacity="0.7"></g>
                    <polygon id="路径-6" fill-opacity="0.21" fill="#000000" filter="url(#filter-40)" mask="url(#mask-39)" points="158.729148 65.7932299 158.729148 104.178595 126.174482 115.006119 126.174482 72.6095664"></polygon>
                </g>
                <g id="光柱" transform="translate(388.988446, 218.000000)">
                    <path d="M8,0 L8,49.483871 L7.91975547,49.4832774 C7.97237528,49.6189591 8,49.7594014 8,49.9032258 C8,51.0612422 6.209139,52 4,52 C1.790861,52 0,51.0612422 0,49.9032258 C0,49.7594014 0.0276247155,49.6189591 0.0802445295,49.4832774 L0,49.483871 L0,0 L8,0 Z" id="形状结合" fill="url(#linearGradient-41)"></path>
                    <ellipse id="椭圆形" stroke="url(#linearGradient-43)" fill="url(#linearGradient-42)" cx="4" cy="50" rx="4.5" ry="2.5"></ellipse>
                </g>
                <g id="光柱备份-4" transform="translate(138.988446, 204.000000)">
                    <path d="M8,0 L8,49.483871 L7.91975547,49.4832774 C7.97237528,49.6189591 8,49.7594014 8,49.9032258 C8,51.0612422 6.209139,52 4,52 C1.790861,52 0,51.0612422 0,49.9032258 C0,49.7594014 0.0276247155,49.6189591 0.0802445295,49.4832774 L0,49.483871 L0,0 L8,0 Z" id="形状结合" fill="url(#linearGradient-41)"></path>
                    <ellipse id="椭圆形" stroke="url(#linearGradient-43)" fill="url(#linearGradient-42)" cx="4" cy="50" rx="4.5" ry="2.5"></ellipse>
                </g>
                <g id="光柱备份-5" transform="translate(122.988446, 237.000000)">
                    <path d="M8,0 L8,49.483871 L7.91975547,49.4832774 C7.97237528,49.6189591 8,49.7594014 8,49.9032258 C8,51.0612422 6.209139,52 4,52 C1.790861,52 0,51.0612422 0,49.9032258 C0,49.7594014 0.0276247155,49.6189591 0.0802445295,49.4832774 L0,49.483871 L0,0 L8,0 Z" id="形状结合" fill="url(#linearGradient-41)"></path>
                    <ellipse id="椭圆形" stroke="url(#linearGradient-43)" fill="url(#linearGradient-42)" cx="4" cy="50" rx="4.5" ry="2.5"></ellipse>
                </g>
                <g id="光柱备份-2" transform="translate(339.988446, 201.000000)">
                    <path d="M6,0 L6,38.0645161 L5.94000612,38.0645611 C5.97934779,38.1687762 6,38.2766398 6,38.3870968 C6,39.2778786 4.65685425,40 3,40 C1.34314575,40 0,39.2778786 0,38.3870968 C0,38.2766398 0.0206522091,38.1687762 0.0599938774,38.0645611 L0,38.0645161 L0,0 L6,0 Z" id="形状结合" fill="url(#linearGradient-44)"></path>
                    <ellipse id="椭圆形" stroke="url(#linearGradient-46)" fill="url(#linearGradient-45)" cx="3" cy="38.5" rx="3.5" ry="2"></ellipse>
                </g>
                <g id="光柱备份-3" transform="translate(229.988446, 193.000000)">
                    <path d="M6,0 L6,38.0645161 L5.94000612,38.0645611 C5.97934779,38.1687762 6,38.2766398 6,38.3870968 C6,39.2778786 4.65685425,40 3,40 C1.34314575,40 0,39.2778786 0,38.3870968 C0,38.2766398 0.0206522091,38.1687762 0.0599938774,38.0645611 L0,38.0645161 L0,0 L6,0 Z" id="形状结合" fill="url(#linearGradient-44)"></path>
                    <ellipse id="椭圆形" stroke="url(#linearGradient-46)" fill="url(#linearGradient-45)" cx="3" cy="38.5" rx="3.5" ry="2"></ellipse>
                </g>
                <g id="光柱备份" transform="translate(370.988446, 239.000000)">
                    <path d="M10,0 L10,59 L9.900036,59.0001333 C9.96558868,59.161647 10,59.3288142 10,59.5 C10,60.8807119 7.76142375,62 5,62 C2.23857625,62 0,60.8807119 0,59.5 C0,59.3288142 0.0344113219,59.161647 0.0999640029,59.0001333 L0,59 L0,0 L10,0 Z" id="形状结合" fill="url(#linearGradient-47)"></path>
                    <ellipse id="椭圆形" stroke="url(#linearGradient-49)" fill="url(#linearGradient-48)" cx="5" cy="59.5" rx="5.5" ry="3"></ellipse>
                </g>
                <g id="光柱备份" transform="translate(285.988446, 256.000000)">
                    <path d="M10.6451613,0 L10.6451613,62.8064516 L10.5385548,62.8061177 C10.6084623,62.9781991 10.6451613,63.1563115 10.6451613,63.3387097 C10.6451613,64.8084997 8.26216077,66 5.32258065,66 C2.38300053,66 0,64.8084997 0,63.3387097 C0,63.1563115 0.0366990288,62.9781991 0.106606515,62.8061177 L0,62.8064516 L0,0 L10.6451613,0 Z" id="形状结合" fill="url(#linearGradient-50)"></path>
                    <ellipse id="椭圆形" stroke="url(#linearGradient-52)" fill="url(#linearGradient-51)" cx="5.32258065" cy="63.3387097" rx="5.82258065" ry="3.16129032"></ellipse>
                </g>
                <g id="光柱备份-6" transform="translate(173.988446, 252.000000)">
                    <path d="M10,0 L10,59 L9.900036,59.0001333 C9.96558868,59.161647 10,59.3288142 10,59.5 C10,60.8807119 7.76142375,62 5,62 C2.23857625,62 0,60.8807119 0,59.5 C0,59.3288142 0.0344113219,59.161647 0.0999640029,59.0001333 L0,59 L0,0 L10,0 Z" id="形状结合" fill="url(#linearGradient-47)"></path>
                    <ellipse id="椭圆形" stroke="url(#linearGradient-49)" fill="url(#linearGradient-48)" cx="5" cy="59.5" rx="5.5" ry="3"></ellipse>
                </g>
                <g id="盾" transform="translate(138.988446, 0.000000)">
                    <g id="Fill-7备份">
                        <use fill="black" fill-opacity="1" filter="url(#filter-55)" xlink:href="#path-54"></use>
                        <use fill-opacity="0.0603693182" fill="#FFFFFF" fill-rule="evenodd" xlink:href="#path-54"></use>
                        <use fill="black" fill-opacity="1" filter="url(#filter-56)" xlink:href="#path-54"></use>
                        <use stroke="url(#linearGradient-53)" stroke-width="1" xlink:href="#path-54"></use>
                    </g>
                    <circle id="椭圆形" stroke="#5877FA" fill="#212438" cx="79.5" cy="4" r="3"></circle>
                    <circle id="椭圆形备份" stroke="#586DFA" fill="#FFFFFF" cx="3.5" cy="72" r="3"></circle>
                    <path d="M83.8142761,7.6690132 L89.1729868,12.4846071 C127.227697,46.8130538 152.95917,42.2940995 153.200692,42.239602 L160.751687,40.5520386 L160.590672,127.201145 C160.526885,161.61815 144.608053,183.000353 143.935505,183.907612 L83.6030985,248.917511 L79.1299716,246.53944 C77.4244487,245.637135 36.9415046,224.051805 23.0966721,210.667105 C7.87330152,195.947216 6.89234721,163.698962 6.87314924,162.333429 L7.03478376,75.4167898 L14.6111695,73.6970234 C24.1333624,71.5357036 38.5014944,60.5724244 55.0408548,42.8440284 C68.2837381,28.641866 78.3471898,15.0750944 78.4592812,14.9431858 L83.8142761,7.6690132 Z" id="Fill-7" stroke="#FFFFFF" fill="url(#linearGradient-57)"></path>
                    <path d="M88.8142761,10.6690132 L94.1729868,15.4846071 C132.227697,49.8130538 157.95917,45.2940995 158.200692,45.239602 L165.751687,43.5520386 L165.590672,130.201145 C165.526885,164.61815 149.608053,186.000353 148.935505,186.907612 L88.6030985,251.917511 L84.1299716,249.53944 C82.4244487,248.637135 41.9415046,227.051805 28.0966721,213.667105 C12.8733015,198.947216 11.8923472,166.698962 11.8731492,165.333429 L12.0347838,78.4167898 L19.6111695,76.6970234 C29.1333624,74.5357036 43.5014944,63.5724244 60.0408548,45.8440284 C73.2837381,31.641866 83.3471898,18.0750944 83.4592812,17.9431858 L88.8142761,10.6690132 Z" id="Fill-7备份-2" stroke="#FFFFFF" fill-opacity="0.4" fill="url(#linearGradient-57)"></path>
                    <path d="M106.814276,17.6690132 L112.172987,22.4846071 C150.227697,56.8130538 175.95917,52.2940995 176.200692,52.239602 L183.751687,50.5520386 L183.590672,137.201145 C183.526885,171.61815 167.608053,193.000353 166.935505,193.907612 L106.603098,258.917511 L102.129972,256.53944 C100.424449,255.637135 59.9415046,234.051805 46.0966721,220.667105 C30.8733015,205.947216 29.8923472,173.698962 29.8731492,172.333429 L30.0347838,85.4167898 L37.6111695,83.6970234 C47.1333624,81.5357036 61.5014944,70.5724244 78.0408548,52.8440284 C91.2837381,38.641866 101.34719,25.0750944 101.459281,24.9431858 L106.814276,17.6690132 Z" id="Fill-7备份-3" stroke="#3132FF" stroke-width="1.4" stroke-dasharray="4,4"></path>
                    <path d="M101.459281,24.9431858 L106.814276,17.6690132 L112.172987,22.4846071 M176.200692,52.239602 L183.751687,50.5520386 C183.737274,58.308296 183.726465,64.1254891 183.719258,68.0036178 M117.643007,247.021693 L106.603098,258.917511 L102.129972,256.53944 C101.628023,256.273884 97.7672896,254.216827 92.2153477,251.104571 M29.9853439,112.002367 C29.9963305,106.094461 30.0128105,97.2326021 30.0347838,85.4167898 L37.6111695,83.6970234" id="形状" stroke="#405AF7" stroke-width="2"></path>
                    <g id="Fill-7备份-2">
                        <use fill="url(#linearGradient-58)" fill-rule="evenodd" xlink:href="#path-59"></use>
                        <use fill="black" fill-opacity="1" filter="url(#filter-60)" xlink:href="#path-59"></use>
                    </g>
                    <g id="Fill-7备份">
                        <use fill-opacity="0.0603693182" fill="#FFFFFF" fill-rule="evenodd" xlink:href="#path-62"></use>
                        <use fill="black" fill-opacity="1" filter="url(#filter-63)" xlink:href="#path-62"></use>
                        <use stroke="url(#linearGradient-61)" stroke-width="1" xlink:href="#path-62"></use>
                    </g>
                    <g id="Fill-7备份-4">
                        <use fill-opacity="0.23" fill="#FFFFFF" fill-rule="evenodd" xlink:href="#path-64"></use>
                        <use fill="black" fill-opacity="1" filter="url(#filter-65)" xlink:href="#path-64"></use>
                    </g>
                    <path d="M72.8982994,134.822078 C72.9092685,128.813631 72.9275595,118.794546 72.9531723,104.764825 L79.5508155,103.239302 C87.8429001,101.322099 100.354909,91.5970982 114.75766,75.8710863 C126.289784,63.2730275 135.053206,51.2385935 135.150817,51.1215837 L139.814036,44.6690132 L144.480491,48.9406962 C146.987888,51.2447425 149.433848,53.3515071 151.813405,55.2776325 M174.788461,69.8738481 C190.56413,77.0747356 200.100025,75.3663857 200.236886,75.3349286 L206.812418,73.8379718 C206.78545,88.6213857 206.765224,99.7089462 206.751739,107.100653 M206.704944,133.476925 C206.698338,137.098137 206.687424,142.356504 206.672204,150.700249 C206.616657,181.229927 192.754272,200.197057 192.168606,201.001843 L139.630139,258.669013 L135.734866,256.55954 C134.249668,255.759149 98.9964441,236.611835 86.9401328,224.738908 C73.6833676,211.681599 72.8291362,183.075716 72.8124183,181.864417 C72.8198481,177.794664 72.8254204,174.742349 72.8291353,172.707472" id="形状" stroke="#FFFFFF"></path>
                    <line x1="72.8291353" y1="172.707472" x2="86.551119" y2="158.8504" id="路径-2" stroke="#FFFFFF"></line>
                    <circle id="椭圆形" stroke="#FFFFFF" cx="72.5" cy="138.5" r="3.5"></circle>
                    <line x1="174.788461" y1="69.8738481" x2="150.5" y2="66.5" id="路径-3" stroke="#FFFFFF"></line>
                    <polyline id="路径-8" stroke="#FFFFFF" points="207 106.359077 199 121 206.812418 134.126578"></polyline>
                    <circle id="椭圆形" stroke="#FFFFFF" cx="197" cy="121" r="2"></circle>
                    <g id="编组-4" transform="translate(43.812418, 225.773563)">
                        <path d="M0,25.5204146 L0,30.3971294 C-7.36622019e-16,35.3676922 4.02943725,39.3971294 9,39.3971294 C9.97886341,39.3971294 10.951171,39.2374408 11.8786143,38.9243552 L76.2233452,17.202911 L76.2233452,17.202911 L76.4835196,11.6281047 C76.689495,7.21463051 73.2786432,3.4698267 68.865169,3.2638513 C67.8859573,3.21815181 66.9066848,3.35280996 65.9761517,3.66111533 L0,25.5204146 L0,25.5204146 Z" id="路径-9" fill-opacity="0.06" fill="#000000" filter="url(#filter-66)"></path>
                        <path d="M3,27.5204146 L3,32.3971294 C3,37.3676922 7.02943725,41.3971294 12,41.3971294 C12.9788634,41.3971294 13.951171,41.2374408 14.8786143,40.9243552 L79.2233452,19.202911 L79.2233452,19.202911 L79.4835196,13.6281047 C79.689495,9.21463051 76.2786432,5.4698267 71.865169,5.2638513 C70.8859573,5.21815181 69.9066848,5.35280996 68.9761517,5.66111533 L3,27.5204146 L3,27.5204146 Z" id="路径-9" stroke="url(#linearGradient-68)" fill="url(#linearGradient-67)"></path>
                        <g id="AUTHENTICATION" fill-rule="nonzero">
                            <use fill="black" fill-opacity="1" filter="url(#filter-70)" xlink:href="#path-69"></use>
                            <use fill="#FFFFFF" xlink:href="#path-69"></use>
                        </g>
                    </g>
                </g>
                <g id="编组-8" transform="translate(337.788358, 5.459531)">
                    <path d="M8.20008851,44.4375156 L79.9434884,13.2652083 C84.3617664,11.3454788 87.9434884,13.3709526 87.9434884,17.7892306 L87.9434884,41.4921573 C87.9434884,45.9104353 84.3617664,51.0484055 79.9434884,52.968135 L8.20008851,84.1404423 C3.78181051,86.0601717 0.20008851,84.034698 0.20008851,79.61642 L0.20008851,55.9134933 C0.20008851,51.4952153 3.78181051,46.357245 8.20008851,44.4375156 Z" id="path-3" fill-opacity="0.21" fill="#000000" filter="url(#filter-71)"></path>
                    <path d="M86.1539653,9.78186549e-05 C87.8956586,-0.0128045767 89.3629103,1.25203985 89.6388045,2.98404885 C89.4101192,2.12397049 88.622384,1.49336827 87.6909388,1.50064468 C87.4385295,1.50269492 87.1887777,1.55244445 86.9548733,1.64732916 L86.9548733,1.64732916 L15.8978931,30.4720143 L15.7224888,30.5497537 C14.803477,30.9926174 14.1759046,31.8715543 14.0492268,32.8755646 C14.028399,32.9512091 14.0144987,33.0294363 14.0068936,33.1090504 L14.0000885,33.2519896 L13.9990765,74.1987944 L14.0015085,74.2927821 C14.0052586,74.3436125 14.0167051,74.3923031 14.0341981,74.4377357 C14.0794577,74.9376118 14.309053,75.3844774 14.6543967,75.7098411 C12.3951917,74.2967003 11,71.8098651 11,69.1113375 L11,33.2519896 C11,31.5972157 11.907336,30.0845969 13.3842853,29.283221 L13.589187,29.1784044 L13.8085184,29.0820267 L84.8654986,0.257341535 C85.2743384,0.0914932382 85.7108845,0.00442546898 86.1539653,9.78186549e-05 Z" id="形状结合" fill="url(#linearGradient-72)" fill-rule="nonzero"></path>
                    <polygon id="路径" fill="url(#linearGradient-73)" fill-rule="nonzero" points="41.7756065 65.3705303 41.7763182 74.7004638 38.7763182 72.9691608 38.7756065 65.3707591"></polygon>
                    <g id="路径">
                        <use fill="url(#linearGradient-74)" fill-rule="evenodd" xlink:href="#path-75"></use>
                        <use fill="black" fill-opacity="1" filter="url(#filter-76)" xlink:href="#path-75"></use>
                    </g>
                    <g id="路径-24" fill-rule="nonzero">
                        <use fill-opacity="0.8" fill="url(#linearGradient-77)" xlink:href="#path-78"></use>
                        <use fill="black" fill-opacity="1" filter="url(#filter-79)" xlink:href="#path-78"></use>
                    </g>
                    <g id="路径-24备份" fill-rule="nonzero">
                        <use fill-opacity="0.8" fill="url(#linearGradient-77)" xlink:href="#path-80"></use>
                        <use fill="black" fill-opacity="1" filter="url(#filter-81)" xlink:href="#path-80"></use>
                    </g>
                    <g id="路径-24备份-2" fill-rule="nonzero">
                        <use fill-opacity="0.8" fill="url(#linearGradient-82)" xlink:href="#path-83"></use>
                        <use fill="black" fill-opacity="1" filter="url(#filter-84)" xlink:href="#path-83"></use>
                    </g>
                </g>
                <g id="编组-10" transform="translate(258.988446, 106.000000)">
                    <path d="M37.0002138,86.2598377 C37.018218,76.4775867 30.975138,70.9024393 23.5321563,73.801765 C16.0855496,76.7034515 10.0176979,86.9978952 10.0000467,96.7479842 C9.98144666,106.498231 16.0215057,112.075037 23.4681125,109.17335 C27.0932355,107.760991 30.5062887,104.575292 33.0789177,100.202568 C35.6146912,95.8763709 37.0079468,90.9282912 37.0002138,86.2598377 Z M28.452766,59.5188317 C39.0574452,58.3415864 47.0270595,67.522915 47.0002011,82.2146238 C47.0147891,90.3062783 44.5846396,98.9160102 40.1519634,106.42421 C35.6818626,113.984394 29.7528131,119.495096 23.4446088,121.943586 C10.4846294,126.974828 -0.0304759869,117.338311 6.63673015e-05,100.459436 C0.0271948171,85.7670852 8.04159601,70.3812582 18.6573186,63.3209367 L18.74996,12.5807832 L28.5454074,8.77867814 L28.5374316,13.1368989 L41.7704271,8 L41.7471133,20.7524972 L28.5141179,25.8893961 L28.4993934,34.1160055 L41.7317754,28.9791928 L41.7084616,41.73169 L28.4760797,46.8685027 L28.452766,59.5188317 Z" id="Fill-1" fill-opacity="0.14" fill="#000000" filter="url(#filter-85)"></path>
                    <g id="Fill-1" opacity="0.561727834">
                        <use fill="#F3F3F3" fill-rule="evenodd" xlink:href="#path-86"></use>
                        <use fill="black" fill-opacity="1" filter="url(#filter-87)" xlink:href="#path-86"></use>
                    </g>
                    <g id="Fill-1备份" fill="black" fill-opacity="1">
                        <use filter="url(#filter-89)" xlink:href="#path-88"></use>
                    </g>
                    <g id="Fill-1备份" stroke-linejoin="round">
                        <use fill="black" fill-opacity="1" filter="url(#filter-91)" xlink:href="#path-90"></use>
                        <use stroke="#FFFFFF" stroke-width="1" xlink:href="#path-90"></use>
                    </g>
                    <path d="M65.000133,80.3328223 C65.0168034,71.0558551 59.4213936,65.7686816 52.5297866,68.518248 C45.634823,71.2700533 40.0164766,81.0327568 40.000133,90.2792232 C39.9829108,99.5258392 45.5755235,104.814586 52.4704871,102.062781 C55.8270617,100.723374 58.9872766,97.7022258 61.3693257,93.5553674 C63.7172496,89.4526315 65.0072931,84.7601356 65.000133,80.3328223 Z M57.6366265,54.9510534 C67.5643829,53.8277088 75.025277,62.588666 75.000133,76.6077081 C75.0137899,84.3288825 72.7387628,92.5444138 68.5890353,99.7088477 C64.4042721,106.922885 58.8536885,112.181277 52.9481524,114.517661 C40.8154405,119.318546 30.9715403,110.123241 31.000133,94.0171731 C31.0255298,79.9975184 38.528352,65.3161387 48.4664467,58.5790773 L48.5531746,10.1620852 L57.7233544,6.53406132 L57.7158878,10.692739 L70.1041884,5.79103532 L70.0823629,17.9596535 L57.6940622,22.8613572 L57.6802777,30.7113074 L70.068004,25.809686 L70.0461784,37.9783042 L57.6584521,42.8799256 L57.6366265,54.9510534 Z" id="Fill-1备份" fill="#FFFFFF"></path>
                </g>
            </g>
        </g>
    </g>
</svg>