<?xml version="1.0" encoding="UTF-8"?>
<svg width="24px" height="24px" viewBox="0 0 24 24" version="1.1" xmlns="http://www.w3.org/2000/svg" xmlns:xlink="http://www.w3.org/1999/xlink">
    <title>通用安全管理logo-白色</title>
    <g id="通用安全管理logo-白色" stroke="none" stroke-width="1" fill="none" fill-rule="evenodd">
        <path d="M11.9051,3 L12.2821,3.125 C13.6191,3.627 17.7991,4.463 19.3041,4.756 L19.3041,4.756 L20.0981,4.923 L20.098,6.887 L20.265,6.8873 C20.6,6.9293 20.892,6.9293 21.269,7.0543 C21.436,7.1383 21.645,7.2213 21.77,7.3893 C21.854,7.5143 21.896,7.5983 21.896,7.7233 C21.896,7.8483 21.896,7.9323 21.854,8.0573 C21.728,8.4343 21.478,8.6433 21.269,8.8523 C20.921,9.16852609 20.573,9.46071452 20.225,9.7470503 L20.2241,10.5234 C20.2241,11.7354 20.0151,12.9484 19.5971,14.1184 C19.1791,15.2474 18.6351,16.2914 17.9241,17.2114 L17.9241,17.2114 L17.8831,17.2944 C17.1301,18.2564 16.2521,19.1334 15.2491,19.8024 C14.3301,20.4294 13.3261,20.8894 12.2821,21.1824 L12.2821,21.1824 L12.0311,21.2654 L11.7801,21.1824 C10.7361,20.8894 9.7321,20.4294 8.8131,19.8024 C7.8091,19.1334 6.9321,18.2974 6.2211,17.3364 L6.2211,17.3364 L6.1791,17.2944 C5.93381678,16.9943195 5.72385497,16.676791 5.5264503,16.3529191 C5.12896679,16.5915079 4.70500633,16.800243 4.257,16.9603 C3.964,17.0433 3.63,17.1273 3.295,17.1273 C3.128,17.1273 2.919,17.0853 2.752,17.0433 C2.543,16.9603 2.376,16.8343 2.209,16.6253 C2.125,16.5423 2.083,16.4173 2.041,16.2923 C2.041,16.2503 2,16.1663 2,16.1253 L2,15.9163 C2,15.6653 2.125,15.4563 2.209,15.2893 C2.376,14.9543 2.585,14.7033 2.794,14.4533 C3.18677831,13.9815902 3.61664105,13.5840492 4.08275855,13.1909835 C3.85822214,12.3153154 3.7551,11.3986577 3.7551,10.482 L3.7551,10.482 L3.7551,4.965 L4.5491,4.797 C6.0961,4.505 10.3181,3.669 11.5291,3.167 L11.5291,3.167 L11.9051,3 Z M20.14,7.6813 C19.847,7.7233 19.555,7.7653 19.304,7.8073 C18.719,7.9323 18.175,8.0993 17.632,8.2663 C16.503,8.6433 15.416,9.1023 14.33,9.5623 C13.243,10.0223 12.199,10.4403 11.112,10.9413 C8.98,11.9443 6.89,12.9903 4.884,14.2443 C4.382,14.5783 3.923,14.8713 3.505,15.2473 C3.295,15.4143 3.086,15.6233 2.961,15.7903 C2.794,15.9993 2.794,16.0413 2.836,16.1663 C2.877,16.2923 3.045,16.4173 3.295,16.4593 C3.546,16.5003 3.839,16.5003 4.132,16.5003 C4.57533333,16.4692288 5.01866667,16.365794 5.462,16.2448354 C5.3788737,16.1075927 5.29844899,15.9695342 5.2181,15.8314 C5.6361,15.5394 6.1791,15.1634 6.8481,14.7034 C7.0991,15.1634 7.3501,15.6224 7.6841,16.0404 L7.6841,16.0404 L7.7261,16.0824 C8.3531,16.8764 9.0631,17.5454 9.9001,18.1304 C10.5271,18.5484 11.2371,18.8834 11.9891,19.1334 C12.7411,18.9244 13.4521,18.5904 14.0791,18.1304 C14.8731,17.5874 15.5841,16.9184 16.1691,16.1654 L16.1691,16.1654 L16.1691,16.1244 L16.2111,16.0404 C16.8381,15.2894 17.2971,14.4114 17.6321,13.4494 C17.9661,12.5304 18.1341,11.5264 18.1341,10.5234 L18.1341,10.5234 L18.1341,8.9354 C18.8441,8.7264 19.4711,8.6014 20.2241,8.5174 L20.2241,8.5174 L20.2244728,9.30031752 C20.4294506,9.09497834 20.624293,8.88963917 20.809,8.6843 C20.976,8.4753 21.143,8.2253 21.227,7.9743 C21.269,7.7653 21.185,7.7233 20.934,7.6813 C20.683,7.6393 20.433,7.6393 20.14,7.6813 Z M11.9471,5.132 C10.4431,5.633 7.2661,6.302 5.7611,6.595 L5.7611,6.595 L5.7611,10.482 C5.7611,10.9382673 5.79874509,11.3852924 5.86964723,11.8228612 C6.30004133,11.5188506 6.73730116,11.2262651 7.182,10.9413 C7.684,10.6073 8.227,10.3143 8.771,10.0223 L10.401,9.1443 L10.401,9.1443 C11.488,8.6013 12.658,8.0993 13.828,7.7653 C14.998,7.4303 16.211,7.1803 17.465,7.0123 C17.6890247,6.98264442 17.9130494,6.95822292 18.1351583,6.93908112 L18.1341,6.595 C16.6291,6.302 13.4941,5.633 11.9471,5.132 Z" fill="#FFFFFF"></path>
    </g>
</svg>